<?xml version="1.0" standalone="no"?>
<!DOCTYPE svg PUBLIC "-//W3C//DTD SVG 20010904//EN"
 "http://www.w3.org/TR/2001/REC-SVG-20010904/DTD/svg10.dtd">
<svg version="1.0" xmlns="http://www.w3.org/2000/svg"
 width="608.000000pt" height="323.000000pt" viewBox="0 0 608.000000 323.000000"
 preserveAspectRatio="xMidYMid meet">

<g transform="translate(0.000000,323.000000) scale(0.100000,-0.100000)"
fill="#000000" stroke="none">
<path d="M0 2425 l0 -805 282 2 282 3 158 420 c86 231 169 450 184 488 l26 67
306 -2 306 -3 182 -485 182 -485 308 -3 c287 -2 309 -4 329 -21 62 -58 256
-138 450 -186 224 -54 300 -86 352 -145 l22 -25 1 48 c0 84 -45 139 -145 176
-31 12 -129 39 -217 61 -268 67 -415 136 -523 244 -182 183 -176 468 14 656
120 120 262 173 504 190 232 17 458 -17 592 -88 78 -42 166 -135 208 -222 33
-67 75 -216 63 -227 -4 -5 -421 -32 -493 -33 l-41 0 -12 50 c-16 68 -58 123
-117 151 -62 31 -199 34 -251 6 -69 -37 -92 -122 -47 -171 32 -35 47 -40 275
-97 107 -26 231 -60 275 -74 174 -57 317 -150 389 -254 l29 -41 158 0 159 0 2
488 3 487 748 3 747 2 0 -200 0 -200 -465 0 -465 0 0 -135 0 -135 430 0 430 0
0 -155 0 -155 230 0 230 0 0 805 0 805 -3040 0 -3040 0 0 -805z"/>
<path d="M1137 1797 c-48 -161 -88 -298 -87 -305 1 -33 26 0 45 59 l22 64 113
0 113 0 22 -65 c15 -44 28 -66 40 -69 12 -2 16 2 13 10 -3 8 -45 142 -93 299
-48 157 -90 288 -93 292 -4 4 -47 -125 -95 -285z"/>
<path d="M4760 1490 l0 -60 430 0 430 0 0 60 0 60 -430 0 -430 0 0 -60z"/>
<path d="M2290 1251 c0 -54 35 -173 77 -260 78 -162 201 -263 378 -309 132
-35 246 -45 430 -39 198 6 284 24 412 87 186 92 313 267 331 459 8 78 0 104
-11 37 -22 -134 -168 -306 -323 -382 -122 -58 -205 -75 -416 -81 -265 -8 -428
19 -570 94 -117 61 -230 203 -274 343 -19 63 -34 85 -34 51z"/>
<path d="M913 1064 c-3 -9 -23 -73 -43 -143 l-38 -126 -267 -5 -267 -5 -19
-45 c-10 -25 -18 -51 -18 -57 -1 -10 62 -13 283 -13 l284 0 20 68 c11 37 31
102 43 145 l22 77 315 -2 315 -3 42 -138 c23 -76 44 -140 47 -142 3 -3 136 -4
295 -3 l291 3 -22 55 -22 55 -274 5 -273 5 -13 40 c-7 22 -27 86 -44 143 l-32
102 -309 0 c-276 0 -310 -2 -316 -16z"/>
<path d="M4190 730 l0 -60 763 2 762 3 0 55 0 55 -762 3 -763 2 0 -60z"/>
</g>
</svg>
